<?xml version="1.0" standalone="no"?>
<!DOCTYPE svg PUBLIC "-//W3C//DTD SVG 20010904//EN"
 "http://www.w3.org/TR/2001/REC-SVG-20010904/DTD/svg10.dtd">
<svg version="1.0" xmlns="http://www.w3.org/2000/svg"
 width="50.000000pt" height="50.000000pt" viewBox="0 0 50.000000 50.000000"
 preserveAspectRatio="xMidYMid meet">

<g transform="translate(0.000000,50.000000) scale(0.100000,-0.100000)"
fill="#000000" stroke="none">
<path d="M236 464 c-31 -30 -9 -84 34 -84 24 0 50 26 50 50 0 24 -26 50 -50
50 -10 0 -26 -7 -34 -16z m59 -34 c0 -18 -6 -26 -23 -28 -13 -2 -25 3 -28 12
-10 26 4 48 28 44 17 -2 23 -10 23 -28z"/>
<path d="M176 340 c-42 -32 -83 -108 -72 -135 11 -31 45 -17 62 25 9 23 18 39
20 37 12 -12 -26 -139 -50 -168 -30 -35 -30 -56 -3 -73 16 -9 25 -4 58 34 21
25 39 51 39 58 0 29 20 8 32 -34 16 -57 40 -76 64 -52 14 14 15 23 4 66 -6 28
-22 65 -36 83 -27 37 -27 38 -15 58 8 12 13 12 24 3 8 -7 32 -13 53 -15 35 -2
39 0 39 22 0 18 -8 27 -32 35 -18 6 -40 22 -49 36 -40 59 -79 65 -138 20z
m100 -4 c3 -7 -2 -39 -11 -70 -17 -57 -17 -57 8 -89 13 -18 29 -53 35 -79 15
-59 15 -58 -3 -58 -10 0 -17 14 -21 42 -5 32 -17 53 -46 81 l-40 38 12 50 c7
28 9 53 6 56 -9 10 -53 -35 -66 -68 -14 -34 -35 -39 -24 -6 13 43 29 66 64 92
37 27 78 33 86 11z m37 -50 c3 -8 19 -17 36 -21 29 -6 44 -25 21 -25 -26 0
-80 30 -80 44 0 20 16 21 23 2z m-101 -147 c-3 -25 -50 -90 -70 -97 -21 -7
-12 22 18 58 17 19 30 43 30 53 0 11 5 17 13 14 6 -2 11 -15 9 -28z"/>
</g>
</svg>
